<mxfile host="app.diagrams.net" modified="2022-03-09T12:06:10.349Z" agent="5.0 (Windows)" etag="jaaAwYM53r8s4JPJwiOR" version="17.0.0" type="github">
  <diagram id="PmiHybyrS9PBiH4dTl0b" name="Page-1">
    <mxGraphModel dx="405" dy="448" grid="1" gridSize="10" guides="1" tooltips="1" connect="1" arrows="1" fold="1" page="1" pageScale="1" pageWidth="850" pageHeight="1100" math="0" shadow="0">
      <root>
        <mxCell id="0" />
        <mxCell id="1" parent="0" />
        <mxCell id="CmWhDvSHKQpdU3qnYciF-33" style="edgeStyle=orthogonalEdgeStyle;rounded=0;orthogonalLoop=1;jettySize=auto;html=1;exitX=0.5;exitY=0;exitDx=0;exitDy=0;exitPerimeter=0;entryX=0;entryY=0.5;entryDx=0;entryDy=0;strokeWidth=3;" edge="1" parent="1" source="CmWhDvSHKQpdU3qnYciF-37" target="CmWhDvSHKQpdU3qnYciF-43">
          <mxGeometry relative="1" as="geometry" />
        </mxCell>
        <mxCell id="CmWhDvSHKQpdU3qnYciF-34" style="edgeStyle=orthogonalEdgeStyle;rounded=0;orthogonalLoop=1;jettySize=auto;html=1;exitX=0.855;exitY=0.145;exitDx=0;exitDy=0;exitPerimeter=0;entryX=0;entryY=0.5;entryDx=0;entryDy=0;strokeWidth=3;" edge="1" parent="1" source="CmWhDvSHKQpdU3qnYciF-37" target="CmWhDvSHKQpdU3qnYciF-41">
          <mxGeometry relative="1" as="geometry" />
        </mxCell>
        <mxCell id="CmWhDvSHKQpdU3qnYciF-35" style="edgeStyle=orthogonalEdgeStyle;rounded=0;orthogonalLoop=1;jettySize=auto;html=1;exitX=0.855;exitY=0.855;exitDx=0;exitDy=0;exitPerimeter=0;entryX=0;entryY=0.5;entryDx=0;entryDy=0;strokeWidth=3;" edge="1" parent="1" source="CmWhDvSHKQpdU3qnYciF-37" target="CmWhDvSHKQpdU3qnYciF-45">
          <mxGeometry relative="1" as="geometry" />
        </mxCell>
        <mxCell id="CmWhDvSHKQpdU3qnYciF-36" style="edgeStyle=orthogonalEdgeStyle;rounded=0;orthogonalLoop=1;jettySize=auto;html=1;exitX=0.5;exitY=1;exitDx=0;exitDy=0;exitPerimeter=0;entryX=0;entryY=0.5;entryDx=0;entryDy=0;strokeWidth=3;" edge="1" parent="1" source="CmWhDvSHKQpdU3qnYciF-37" target="CmWhDvSHKQpdU3qnYciF-47">
          <mxGeometry relative="1" as="geometry" />
        </mxCell>
        <mxCell id="CmWhDvSHKQpdU3qnYciF-37" value="" style="strokeWidth=2;html=1;shape=mxgraph.flowchart.start_2;whiteSpace=wrap;" vertex="1" parent="1">
          <mxGeometry x="100" y="155" width="30" height="30" as="geometry" />
        </mxCell>
        <mxCell id="CmWhDvSHKQpdU3qnYciF-38" value="" style="strokeWidth=2;html=1;shape=mxgraph.flowchart.start_2;whiteSpace=wrap;" vertex="1" parent="1">
          <mxGeometry x="425" y="145" width="50" height="50" as="geometry" />
        </mxCell>
        <mxCell id="CmWhDvSHKQpdU3qnYciF-39" value="" style="strokeWidth=2;html=1;shape=mxgraph.flowchart.start_2;whiteSpace=wrap;fillColor=#000000;" vertex="1" parent="1">
          <mxGeometry x="435" y="155" width="30" height="30" as="geometry" />
        </mxCell>
        <mxCell id="CmWhDvSHKQpdU3qnYciF-40" style="edgeStyle=orthogonalEdgeStyle;rounded=0;orthogonalLoop=1;jettySize=auto;html=1;exitX=1;exitY=0.5;exitDx=0;exitDy=0;entryX=0.145;entryY=0.145;entryDx=0;entryDy=0;entryPerimeter=0;strokeWidth=3;" edge="1" parent="1" source="CmWhDvSHKQpdU3qnYciF-41" target="CmWhDvSHKQpdU3qnYciF-38">
          <mxGeometry relative="1" as="geometry" />
        </mxCell>
        <mxCell id="CmWhDvSHKQpdU3qnYciF-41" value="&lt;div&gt;&lt;font size=&quot;3&quot;&gt;&lt;font style=&quot;font-size: 24px&quot;&gt;reload_&lt;/font&gt;&lt;/font&gt;&lt;/div&gt;&lt;div&gt;&lt;font size=&quot;3&quot;&gt;&lt;font style=&quot;font-size: 24px&quot;&gt;weapon&lt;br&gt;&lt;/font&gt;&lt;/font&gt;&lt;/div&gt;" style="rounded=1;whiteSpace=wrap;html=1;fillColor=#FFFFFF;strokeWidth=3;" vertex="1" parent="1">
          <mxGeometry x="210" y="95" width="150" height="60" as="geometry" />
        </mxCell>
        <mxCell id="CmWhDvSHKQpdU3qnYciF-42" style="edgeStyle=orthogonalEdgeStyle;rounded=0;orthogonalLoop=1;jettySize=auto;html=1;exitX=1;exitY=0.5;exitDx=0;exitDy=0;entryX=0.5;entryY=0;entryDx=0;entryDy=0;entryPerimeter=0;strokeWidth=3;" edge="1" parent="1" source="CmWhDvSHKQpdU3qnYciF-43" target="CmWhDvSHKQpdU3qnYciF-38">
          <mxGeometry relative="1" as="geometry" />
        </mxCell>
        <mxCell id="CmWhDvSHKQpdU3qnYciF-43" value="&lt;div&gt;&lt;font size=&quot;3&quot;&gt;&lt;font style=&quot;font-size: 24px&quot;&gt;set_active_&lt;/font&gt;&lt;/font&gt;&lt;/div&gt;&lt;div&gt;&lt;font size=&quot;3&quot;&gt;&lt;font style=&quot;font-size: 24px&quot;&gt;weapon&lt;br&gt;&lt;/font&gt;&lt;/font&gt;&lt;/div&gt;" style="rounded=1;whiteSpace=wrap;html=1;fillColor=#FFFFFF;strokeWidth=3;" vertex="1" parent="1">
          <mxGeometry x="210" y="20" width="150" height="60" as="geometry" />
        </mxCell>
        <mxCell id="CmWhDvSHKQpdU3qnYciF-44" style="edgeStyle=orthogonalEdgeStyle;rounded=0;orthogonalLoop=1;jettySize=auto;html=1;exitX=1;exitY=0.5;exitDx=0;exitDy=0;entryX=0.145;entryY=0.855;entryDx=0;entryDy=0;entryPerimeter=0;strokeWidth=3;" edge="1" parent="1" source="CmWhDvSHKQpdU3qnYciF-45" target="CmWhDvSHKQpdU3qnYciF-38">
          <mxGeometry relative="1" as="geometry" />
        </mxCell>
        <mxCell id="CmWhDvSHKQpdU3qnYciF-45" value="&lt;div&gt;&lt;font size=&quot;3&quot;&gt;&lt;font style=&quot;font-size: 24px&quot;&gt;swap_&lt;/font&gt;&lt;/font&gt;&lt;/div&gt;&lt;div&gt;&lt;font size=&quot;3&quot;&gt;&lt;font style=&quot;font-size: 24px&quot;&gt;weapon&lt;/font&gt;&lt;/font&gt;&lt;/div&gt;" style="rounded=1;whiteSpace=wrap;html=1;fillColor=#FFFFFF;strokeWidth=3;" vertex="1" parent="1">
          <mxGeometry x="210" y="180" width="150" height="60" as="geometry" />
        </mxCell>
        <mxCell id="CmWhDvSHKQpdU3qnYciF-46" style="edgeStyle=orthogonalEdgeStyle;rounded=0;orthogonalLoop=1;jettySize=auto;html=1;exitX=1;exitY=0.5;exitDx=0;exitDy=0;strokeWidth=3;" edge="1" parent="1" source="CmWhDvSHKQpdU3qnYciF-47">
          <mxGeometry relative="1" as="geometry">
            <mxPoint x="450" y="199.9999999999999" as="targetPoint" />
          </mxGeometry>
        </mxCell>
        <mxCell id="CmWhDvSHKQpdU3qnYciF-47" value="&lt;div&gt;&lt;font size=&quot;3&quot;&gt;&lt;font style=&quot;font-size: 24px&quot;&gt;upgrade_&lt;/font&gt;&lt;/font&gt;&lt;/div&gt;&lt;div&gt;&lt;font size=&quot;3&quot;&gt;&lt;font style=&quot;font-size: 24px&quot;&gt;weapon&lt;br&gt;&lt;/font&gt;&lt;/font&gt;&lt;/div&gt;" style="rounded=1;whiteSpace=wrap;html=1;fillColor=#FFFFFF;strokeWidth=3;" vertex="1" parent="1">
          <mxGeometry x="210" y="260" width="150" height="60" as="geometry" />
        </mxCell>
      </root>
    </mxGraphModel>
  </diagram>
</mxfile>
